# xmcd CD database file
#
# Track frame offsets:
#	150
#	17369
#	36982
#	53017
#	66746
#	85526
#	103025
#	120585
#	137038
#	154845
#	170157
#	189466
#	208023
#	221500
#
# Disc length: 3177 seconds
#
# Revision: 2
# Processed by: cddbd v1.5.2PL0 Copyright (c) Steve Scherf et al.
# Submitted via: CDex 2.21
#
DISCID=c50c670e
DTITLE=Tim McGraw - Damn Country Music (Deluxe)
DYEAR=2015
DGENRE=Country
TTITLE0=Here Tonight feat. Gracie McGraw
TTITLE1=Losin' You
TTITLE2=How I'll Always Be
TTITLE3=Damn Country Music
TTITLE4=Love Runs
TTITLE5=What You're Lookin' For
TTITLE6=Top Of The World
TTITLE7=Don't Make Me Feel at Home
TTITLE8=Want You Back
TTITLE9=California with Big_Rich
TTITLE10=Humble And Kind
TTITLE11=Everybody's Lookin'
TTITLE12=Kiss A Girl
TTITLE13=Country and Western
EXTD=YEAR: 2015
EXTT0=
EXTT1=
EXTT2=
EXTT3=
EXTT4=
EXTT5=
EXTT6=
EXTT7=
EXTT8=
EXTT9=
EXTT10=
EXTT11=
EXTT12=
EXTT13=
PLAYORDER=
